# This file uses meters as units for non-parametric coordinates.

mtllib TV.mtl
g default
v -72.425323 78.719360 -154.805023
v -19.365278 78.719360 -154.805023
v -72.425323 79.713646 -154.805023
v -19.365278 79.713646 -154.805023
v -72.425323 80.803024 -157.212769
v -19.365278 80.803024 -157.212769
v -72.425323 78.719360 -157.212769
v -19.365278 78.719360 -157.212769
v -49.808399 78.719360 -163.457764
v -41.982201 78.719360 -163.457764
v -43.020042 78.719360 -168.734695
v -48.770561 78.719360 -168.734695
v -43.020042 80.803024 -168.734695
v -48.770561 80.803024 -168.734695
v -41.982201 79.713646 -163.457764
v -49.808399 79.713646 -163.457764
v -60.597939 78.719360 -163.531601
v -61.116859 78.719360 -159.689270
v -61.116859 79.713646 -159.689270
v -60.597939 80.803024 -163.531601
v -30.673740 78.719360 -159.689270
v -30.673740 79.713646 -159.689270
v -31.192661 80.803024 -163.531601
v -31.192661 78.719360 -163.531601
v -83.127106 84.859184 -160.180130
v -8.663506 84.859184 -160.180130
v -83.127106 129.452408 -160.180130
v -8.663506 129.452408 -160.180130
v -83.549744 129.875046 -159.814682
v -8.240883 129.875046 -159.814682
v -7.849239 130.111328 -160.308075
v -83.941360 130.111328 -160.308075
v -83.941360 84.200256 -160.308075
v -7.849239 84.200256 -160.308075
v -8.240883 84.436539 -159.814682
v -83.549744 84.436539 -159.814682
v -83.941360 129.701035 -161.224625
v -7.849239 129.701035 -161.224625
v -83.941360 84.200256 -161.224625
v -7.849239 84.200256 -161.224625
v -79.400574 84.859184 -160.180130
v -62.647942 84.859184 -160.180130
v -29.142670 84.859184 -160.180130
v -12.390038 84.859184 -160.180130
v -12.390038 84.436539 -159.814682
v -29.142670 84.436539 -159.814682
v -62.647942 84.436539 -159.814682
v -79.400574 84.436539 -159.814682
v -12.390038 84.200256 -160.308075
v -29.142664 84.200256 -160.308075
v -62.647942 84.200256 -160.308075
v -79.400574 84.200256 -160.308075
v -12.390038 84.200256 -162.318390
v -29.142664 84.200256 -163.481384
v -62.647942 84.200256 -163.481384
v -79.400574 84.200256 -162.318390
v -12.390038 129.701035 -162.318390
v -29.142664 129.701035 -163.481384
v -62.647942 129.701035 -163.481384
v -79.400574 129.701035 -162.318390
v -12.390038 130.111328 -160.308075
v -29.142664 130.111328 -160.308075
v -62.647942 130.111328 -160.308075
v -79.400574 130.111328 -160.308075
v -12.390038 129.875046 -159.814682
v -29.142670 129.875046 -159.814682
v -62.647942 129.875046 -159.814682
v -79.400574 129.875046 -159.814682
v -12.390038 129.452408 -160.180130
v -29.142670 129.452408 -160.180130
v -62.647942 129.452408 -160.180130
v -79.400574 129.452408 -160.180130
v -49.245495 84.859184 -160.180130
v -42.545120 84.859184 -160.180130
v -42.545120 84.436539 -159.814682
v -49.245495 84.436539 -159.814682
v -42.545101 84.200256 -160.308075
v -49.245495 84.200256 -160.308075
v -42.545101 84.200256 -163.782349
v -49.245495 84.200256 -163.782349
v -42.545101 129.701035 -163.782349
v -49.245495 129.701035 -163.782349
v -42.545101 130.111328 -160.308075
v -49.245495 130.111328 -160.308075
v -42.545120 129.875046 -159.814682
v -49.245495 129.875046 -159.814682
v -42.545120 129.452408 -160.180130
v -49.245495 129.452408 -160.180130
v -83.127106 92.064606 -160.180130
v -79.400574 92.064606 -160.180130
v -62.647942 92.064606 -160.180130
v -49.245495 92.064606 -160.180130
v -42.545120 92.064606 -160.180130
v -29.142670 92.064606 -160.180130
v -12.390038 92.064606 -160.180130
v -8.663506 92.064606 -160.180130
v -8.240883 91.778542 -159.814682
v -7.849239 91.618614 -160.308075
v -7.849239 91.552315 -161.224625
v -12.390038 91.927635 -162.318390
v -29.142664 95.468475 -163.481384
v -42.545101 98.179184 -163.782349
v -49.245495 98.179184 -163.782349
v -62.647942 95.468475 -163.481384
v -79.400574 91.927635 -162.318390
v -83.941360 91.552315 -161.224625
v -83.941360 91.618614 -160.308075
v -83.549744 91.778542 -159.814682
v -47.766979 86.311295 -169.109802
v -44.023617 86.311295 -169.109802
v -47.766979 93.102547 -167.692429
v -44.023617 93.102547 -167.692429
v -49.245495 79.330223 -163.782349
v -42.545101 79.330223 -163.782349
v -47.766979 79.330223 -167.614105
v -44.023617 79.330223 -167.614105
vt 0.937232 0.987831
vt 0.937232 0.499934
vt 0.985862 0.499934
vt 0.985862 0.987831
vt 0.014138 0.499934
vt 0.062768 0.499934
vt 0.062768 0.987831
vt 0.014138 0.987831
vt 0.281384 0.499934
vt 0.281384 0.987831
vt 0.718616 0.499934
vt 0.718616 0.987831
vt 0.456281 0.499934
vt 0.543719 0.499934
vt 0.543719 0.987831
vt 0.456281 0.987831
vt 0.014138 0.405906
vt 0.062768 0.405906
vt 0.281384 0.405906
vt 0.456281 0.405906
vt 0.543719 0.405906
vt 0.718616 0.405906
vt 0.937232 0.405906
vt 0.985862 0.405906
vt 0.413984 0.290914
vt 0.413984 0.278851
vt 0.424423 0.278851
vt 0.418965 0.290914
vt 0.400476 0.290914
vt 0.400476 0.278851
vt 0.405458 0.278851
vt 0.410916 0.290914
vt 0.503260 0.241038
vt 0.503260 0.048185
vt 0.507852 0.047853
vt 0.507852 0.238983
vt 0.500788 0.048986
vt 0.500788 0.239854
vt 0.503260 0.011018
vt 0.507852 0.011018
vt 0.500788 0.012202
vt 0.511508 0.047853
vt 0.516100 0.048185
vt 0.516100 0.241038
vt 0.511508 0.238983
vt 0.516100 0.011018
vt 0.511508 0.011018
vt 0.518572 0.048986
vt 0.518572 0.239854
vt 0.518572 0.012202
vt 0.511409 0.303251
vt 0.511409 0.373287
vt 0.491819 0.347852
vt 0.484718 0.313827
vt 0.492211 0.278851
vt 0.511409 0.278851
vt 0.454959 0.373287
vt 0.454959 0.303251
vt 0.481650 0.313827
vt 0.474549 0.347852
vt 0.454959 0.278851
vt 0.474156 0.278851
vt 0.367397 0.124332
vt 0.367397 0.163542
vt 0.340958 0.158342
vt 0.340958 0.129531
vt 0.386277 0.220199
vt 0.367027 0.217599
vt 0.367027 0.070275
vt 0.386277 0.067675
vt 0.398685 0.276855
vt 0.410748 0.276855
vt 0.398685 0.011018
vt 0.410748 0.011018
vt 0.340958 0.158342
vt 0.340958 0.129531
vt 0.367397 0.124332
vt 0.367397 0.163542
vt 0.367027 0.070275
vt 0.386277 0.067675
vt 0.386277 0.220199
vt 0.367027 0.217599
vt 0.410748 0.011018
vt 0.398685 0.011018
vt 0.410748 0.276855
vt 0.398685 0.276855
vt 0.025624 0.033768
vt 0.023152 0.033768
vt 0.023152 0.012981
vt 0.025624 0.011018
vt 0.025624 0.117701
vt 0.023152 0.117701
vt 0.035696 0.033768
vt 0.030216 0.011018
vt 0.041523 0.117701
vt 0.025624 0.184849
vt 0.023152 0.184849
vt 0.043031 0.184849
vt 0.025624 0.218418
vt 0.023152 0.218418
vt 0.043031 0.218418
vt 0.025624 0.285566
vt 0.023152 0.285566
vt 0.041523 0.285566
vt 0.025624 0.369499
vt 0.023152 0.369499
vt 0.035696 0.369499
vt 0.023152 0.390287
vt 0.025624 0.392249
vt 0.030216 0.392249
vt 0.023152 0.369499
vt 0.025624 0.369499
vt 0.025624 0.392249
vt 0.023152 0.390287
vt 0.023152 0.285566
vt 0.025624 0.285566
vt 0.035696 0.369499
vt 0.030216 0.392249
vt 0.023152 0.218418
vt 0.025624 0.218418
vt 0.041523 0.285566
vt 0.023152 0.184849
vt 0.025624 0.184849
vt 0.043031 0.218418
vt 0.023152 0.117701
vt 0.025624 0.117701
vt 0.043031 0.184849
vt 0.023152 0.033768
vt 0.025624 0.033768
vt 0.041523 0.117701
vt 0.025624 0.011018
vt 0.023152 0.012980
vt 0.035696 0.033768
vt 0.030216 0.011018
vt 0.332187 0.163542
vt 0.332187 0.124332
vt 0.337169 0.124332
vt 0.337169 0.163542
vt 0.332187 0.067675
vt 0.337169 0.067675
vt 0.337169 0.220199
vt 0.332187 0.220199
vt 0.332187 0.011018
vt 0.337169 0.011018
vt 0.332187 0.276855
vt 0.337169 0.276855
vt 0.424490 0.129531
vt 0.424490 0.158342
vt 0.414051 0.158342
vt 0.414051 0.129531
vt 0.424490 0.217599
vt 0.414051 0.217599
vt 0.414051 0.070275
vt 0.424490 0.070275
vt 0.414051 0.276855
vt 0.424490 0.276855
vt 0.414051 0.011018
vt 0.424490 0.011018
vt 0.261158 0.011018
vt 0.259278 0.033768
vt 0.070029 0.033768
vt 0.070029 0.011018
vt 0.297993 0.033768
vt 0.297993 0.011018
vt 0.241538 0.117701
vt 0.070029 0.117701
vt 0.297993 0.117701
vt 0.227957 0.184849
vt 0.070029 0.184849
vt 0.297993 0.184849
vt 0.227957 0.218418
vt 0.070029 0.218418
vt 0.253391 0.192256
vt 0.253391 0.211011
vt 0.241538 0.285566
vt 0.070029 0.285566
vt 0.287416 0.192256
vt 0.287416 0.211011
vt 0.297993 0.218418
vt 0.297993 0.285566
vt 0.259278 0.369499
vt 0.070029 0.369499
vt 0.322392 0.192256
vt 0.322392 0.211011
vt 0.297993 0.369499
vt 0.070029 0.392249
vt 0.261158 0.392249
vt 0.297993 0.392249
vt 0.451891 0.278851
vt 0.451891 0.312421
vt 0.427491 0.312421
vt 0.427491 0.278851
vt 0.531436 0.303224
vt 0.531436 0.115907
vt 0.533267 0.114473
vt 0.533267 0.305341
vt 0.531436 0.079807
vt 0.533267 0.077689
vt 0.526537 0.114473
vt 0.528368 0.115907
vt 0.528368 0.303224
vt 0.526537 0.305341
vt 0.528368 0.079807
vt 0.526537 0.077689
vt 0.634205 0.393908
vt 0.561458 0.393908
vt 0.561458 0.392321
vt 0.634205 0.392321
vt 0.415963 0.393908
vt 0.343216 0.393908
vt 0.343216 0.392321
vt 0.415963 0.392321
vt 0.650387 0.393908
vt 0.652222 0.392321
vt 0.327033 0.393908
vt 0.325198 0.392321
vt 0.503258 0.393908
vt 0.474162 0.393908
vt 0.328171 0.031806
vt 0.326340 0.031806
vt 0.326340 0.013136
vt 0.328171 0.011018
vt 0.328171 0.115739
vt 0.326340 0.115739
vt 0.328171 0.182887
vt 0.326340 0.182887
vt 0.328171 0.216456
vt 0.326340 0.216456
vt 0.328171 0.283604
vt 0.326340 0.283604
vt 0.328171 0.367537
vt 0.326340 0.367537
vt 0.326340 0.386207
vt 0.328171 0.388325
vt 0.474162 0.392321
vt 0.503258 0.392321
vn 1.000000 0.000000 0.000000
vn 1.000000 0.000000 0.000000
vn 1.000000 0.000000 0.000000
vn 1.000000 0.000000 0.000000
vn -1.000000 0.000000 0.000000
vn -1.000000 0.000000 0.000000
vn -1.000000 0.000000 0.000000
vn -1.000000 0.000000 0.000000
vn 0.193235 0.000000 0.981153
vn -0.193235 0.000000 0.981153
vn -0.193235 0.000000 0.981153
vn 0.193235 0.000000 0.981153
vn 0.000000 -1.000000 0.000000
vn 0.000000 -1.000000 0.000000
vn 0.000000 -1.000000 0.000000
vn 0.000000 -1.000000 0.000000
vn 0.283829 0.000000 -0.958875
vn -0.283829 0.000000 -0.958875
vn -0.283829 0.000000 -0.958875
vn 0.283829 0.000000 -0.958875
vn -0.041798 0.974167 0.221926
vn 0.041798 0.974167 0.221926
vn 0.064887 0.970394 0.232646
vn -0.064887 0.970394 0.232646
vn -0.357321 0.000000 0.933982
vn -0.357321 0.000000 0.933982
vn -0.134656 0.944699 0.299017
vn -0.112925 0.956234 0.269935
vn 0.437902 0.000000 -0.899023
vn 0.437902 0.000000 -0.899023
vn 0.000000 -1.000000 0.000000
vn 0.000000 -1.000000 0.000000
vn 0.000000 -1.000000 0.000000
vn 0.000000 -1.000000 0.000000
vn 0.000000 -1.000000 0.000000
vn 0.000000 -1.000000 0.000000
vn -0.471221 0.000000 -0.882015
vn -0.437902 0.000000 -0.899023
vn -0.437902 0.000000 -0.899023
vn -0.471221 0.000000 -0.882015
vn 0.163093 0.927340 0.336809
vn 0.134655 0.944699 0.299017
vn 0.112924 0.956234 0.269935
vn 0.163093 0.927340 0.336809
vn 0.396507 0.000000 0.918032
vn 0.357321 0.000000 0.933982
vn 0.357321 0.000000 0.933982
vn 0.396507 0.000000 0.918032
vn -0.396507 0.000000 0.918032
vn -0.396507 0.000000 0.918032
vn -0.163093 0.927340 0.336810
vn -0.163093 0.927340 0.336810
vn 0.471221 0.000000 -0.882015
vn 0.471221 0.000000 -0.882015
vn 0.000000 -1.000000 0.000000
vn 0.000000 -1.000000 0.000000
vn 0.783237 0.000000 0.621724
vn 0.783236 0.000000 0.621724
vn 0.783237 0.000000 0.621723
vn 0.783237 0.000000 0.621723
vn -0.783257 0.000000 0.621698
vn -0.783257 0.000000 0.621698
vn -0.783258 0.000000 0.621697
vn -0.783258 0.000000 0.621697
vn -0.654088 0.000000 0.756418
vn -0.654089 0.000000 0.756418
vn -0.654089 0.000000 0.756417
vn -0.654088 0.000000 0.756418
vn 0.654078 0.000000 0.756427
vn 0.654078 0.000000 0.756427
vn 0.654078 0.000000 0.756427
vn 0.654078 0.000000 0.756427
vn 1.000000 0.000000 0.000000
vn 1.000000 0.000000 0.000000
vn 1.000000 0.000000 0.000000
vn 1.000000 0.000000 0.000000
vn -1.000000 0.000000 0.000000
vn -1.000000 0.000000 0.000000
vn -1.000000 0.000000 0.000000
vn -1.000000 0.000000 0.000000
vn 0.000000 0.654066 0.756437
vn 0.000000 0.654064 0.756439
vn 0.000000 0.654064 0.756439
vn 0.000000 0.654066 0.756437
vn 0.000000 0.654068 0.756436
vn 0.000000 0.654066 0.756437
vn 0.000000 0.654066 0.756437
vn 0.000000 0.654068 0.756436
vn 0.000000 0.000000 1.000000
vn 0.000000 0.000000 1.000000
vn 0.000000 0.000000 1.000000
vn 0.000000 0.000000 1.000000
vn 0.007641 0.998052 -0.061913
vn 0.000000 0.901908 0.431928
vn 0.000000 0.901917 0.431909
vn 0.027906 0.987595 -0.154526
vn 0.000000 -0.901910 0.431923
vn 0.000000 -0.996620 0.082154
vn 0.000000 -0.996960 0.077911
vn 0.000000 -0.901907 0.431930
vn 0.000000 -0.654074 0.756431
vn 0.000000 -0.654074 0.756431
vn 0.000000 -0.654082 0.756424
vn 0.000000 -0.654082 0.756424
vn 0.000000 0.654069 0.756435
vn 0.000000 0.654069 0.756435
vn 0.008513 0.985513 -0.169384
vn 0.032495 0.962365 -0.269809
vn 0.000000 -1.000000 0.000000
vn 0.000000 -1.000000 0.000000
vn 0.234177 0.000000 -0.972194
vn 0.108714 0.000000 -0.994073
vn 0.106914 0.000000 -0.994268
vn 0.234177 0.000000 -0.972194
vn 0.000000 0.654068 0.756435
vn 0.000000 0.654068 0.756435
vn 0.000000 -0.996960 0.077911
vn 0.000000 -0.996620 0.082153
vn 0.000000 -0.901912 0.431921
vn 0.000000 -0.901913 0.431918
vn 0.000000 -1.000000 0.000000
vn 0.000000 -1.000000 0.000000
vn -0.234178 0.000000 -0.972194
vn -0.106915 0.000000 -0.994268
vn -0.108715 0.000000 -0.994073
vn -0.234178 0.000000 -0.972194
vn -0.027906 0.987595 -0.154523
vn -0.007641 0.998052 -0.061913
vn -0.008513 0.985513 -0.169384
vn -0.032495 0.962365 -0.269810
vn 0.000000 0.901916 0.431913
vn 0.000000 0.901908 0.431928
vn 0.000000 -0.654068 0.756435
vn 0.000000 -0.654071 0.756433
vn 0.000000 -0.654071 0.756433
vn 0.000000 -0.654068 0.756435
vn 0.000000 0.000000 1.000000
vn 0.000000 0.000000 1.000000
vn 0.000000 0.000000 1.000000
vn 0.000000 0.000000 1.000000
vn 0.000000 -0.901912 0.431920
vn 0.000000 -0.997609 0.069115
vn 0.000000 -0.901912 0.431920
vn 0.000000 -0.997609 0.069115
vn 0.000000 -1.000000 0.000000
vn 0.000000 -1.000000 0.000000
vn -0.050008 0.000000 -0.998749
vn -0.049534 0.000000 -0.998772
vn 0.050007 0.000000 -0.998749
vn 0.049534 0.000000 -0.998773
vn -0.003321 0.990317 -0.138782
vn -0.002916 0.998697 -0.050955
vn 0.003321 0.990317 -0.138782
vn 0.002916 0.998697 -0.050955
vn 0.000000 0.901909 0.431926
vn 0.000000 0.901909 0.431925
vn 0.000000 -0.654071 0.756433
vn 0.000000 -0.654071 0.756433
vn 0.000000 -0.654071 0.756433
vn 0.000000 -0.654071 0.756433
vn 0.000000 0.000000 1.000000
vn 0.000000 0.000000 1.000000
vn 0.000000 0.000000 1.000000
vn 0.000000 0.000000 1.000000
vn 0.000000 0.000000 1.000000
vn 0.000000 0.000000 1.000000
vn 0.000000 0.000000 1.000000
vn 0.000000 0.000000 1.000000
vn 0.000000 0.654065 0.756438
vn 0.000000 0.654071 0.756433
vn 0.000000 0.654071 0.756433
vn 0.000000 0.654065 0.756438
vn 0.000000 -0.901912 0.431920
vn 0.000000 -0.901912 0.431920
vn 0.000000 -0.998139 0.060983
vn 0.000000 -0.998139 0.060984
vn 0.000000 -1.000000 0.000000
vn 0.000000 -1.000000 0.000000
vn 0.016909 0.000000 -0.999857
vn -0.016909 0.000000 -0.999857
vn -0.015178 0.000000 -0.999885
vn 0.015178 0.000000 -0.999885
vn 0.000899 0.992688 -0.120702
vn -0.000899 0.992688 -0.120702
vn -0.000904 0.992686 -0.120718
vn 0.000904 0.992686 -0.120719
vn 0.000000 0.901914 0.431915
vn 0.000000 0.901914 0.431916
vn 0.000000 0.901914 0.431916
vn 0.000000 0.901914 0.431915
vn 0.000000 -0.654071 0.756433
vn 0.000000 -0.654071 0.756433
vn 0.000000 -0.654071 0.756433
vn 0.000000 -0.654071 0.756433
vn 0.000000 0.000000 1.000000
vn 0.000000 0.000000 1.000000
vn 0.000000 0.000000 1.000000
vn 0.000000 0.000000 1.000000
vn 0.000000 0.000000 1.000000
vn 0.000000 0.000000 1.000000
vn 0.000000 0.000000 1.000000
vn 0.000000 0.000000 1.000000
vn -0.654093 0.000000 0.756415
vn -0.654093 0.000000 0.756415
vn 0.783233 0.000000 0.621728
vn 0.783233 0.000000 0.621728
vn 1.000000 0.000000 0.000000
vn 1.000000 0.000000 0.000000
vn 0.099287 0.000000 -0.995059
vn 0.234175 0.000000 -0.972195
vn 0.045172 0.000000 -0.998979
vn 0.022451 0.000000 -0.999748
vn 0.000000 0.204304 -0.978908
vn 0.000000 0.204304 -0.978908
vn 0.000000 0.204304 -0.978908
vn 0.000000 0.204304 -0.978908
vn -0.022451 0.000000 -0.999748
vn -0.045172 0.000000 -0.998979
vn -0.099287 0.000000 -0.995059
vn -0.234175 0.000000 -0.972194
vn -1.000000 0.000000 0.000000
vn -1.000000 0.000000 0.000000
vn -0.783254 0.000000 0.621702
vn -0.783254 0.000000 0.621702
vn 0.654079 0.000000 0.756427
vn 0.654079 0.000000 0.756427
vn -0.950181 0.021221 -0.310976
vn -0.950181 0.021221 -0.310976
vn -0.950181 0.021221 -0.310976
vn -0.950181 0.021221 -0.310976
vn 0.000000 0.610199 -0.792248
vn 0.000000 0.610199 -0.792248
vn 0.000000 0.610199 -0.792248
vn 0.000000 0.610199 -0.792248
vn 0.950181 0.021221 -0.310976
vn 0.950181 0.021221 -0.310976
vn 0.950181 0.021221 -0.310976
vn 0.950181 0.021221 -0.310976
vn 0.000000 0.000000 1.000000
vn 0.000000 0.000000 1.000000
vn 0.000000 0.000000 1.000000
vn 0.000000 0.000000 1.000000
vn -0.948163 -0.039791 -0.315284
vn -0.948163 -0.039791 -0.315284
vn -0.948163 -0.039791 -0.315284
vn -0.948163 -0.039791 -0.315284
vn 0.000000 -0.209496 -0.977810
vn 0.000000 -0.209496 -0.977810
vn 0.000000 -0.209496 -0.977810
vn 0.000000 -0.209496 -0.977810
vn 0.948163 -0.039791 -0.315284
vn 0.948163 -0.039791 -0.315284
vn 0.948163 -0.039791 -0.315284
vn 0.948163 -0.039791 -0.315284
s off
g TV DeskItems
usemtl lambert8SG
f 2/25/1 8/26/2 6/27/3 4/28/4
f 7/29/5 1/30/6 3/31/7 5/32/8
s 1
f 9/135/9 10/136/10 15/137/11 16/138/12
s 2
f 10/63/13 9/64/14 12/65/15 11/66/16
s 3
f 11/147/17 12/148/18 14/149/19 13/150/20
s 4
f 13/75/21 14/76/22 16/77/23 15/78/24
s 1
f 15/137/11 10/136/10 21/139/25 22/140/26
s 4
f 13/75/21 15/78/24 22/81/27 23/82/28
s 3
f 11/147/17 13/150/20 23/153/29 24/154/30
s 2
f 10/63/13 11/66/16 24/69/31 21/70/32
f 7/71/33 17/68/34 18/67/35 1/72/36
s 3
f 5/155/37 20/152/38 17/151/39 7/156/40
s 4
f 3/83/41 19/80/42 20/79/43 5/84/44
s 1
f 1/145/45 18/142/46 19/141/47 3/146/48
s 2
f 18/67/35 17/68/34 12/65/15 9/64/14
s 1
f 19/141/47 18/142/46 9/135/9 16/138/12
s 4
f 20/79/43 19/80/42 16/77/23 14/76/22
s 3
f 17/151/39 20/152/38 14/149/19 12/148/18
s 1
f 22/140/26 21/139/25 2/143/49 4/144/50
s 4
f 23/82/28 22/81/27 4/85/51 6/86/52
s 3
f 24/154/30 23/153/29 6/157/53 8/158/54
s 2
f 21/70/32 24/69/31 8/73/55 2/74/56
s 5
f 97/37/57 98/34/58 31/33/59 30/38/60
s 6
f 107/43/61 108/48/62 29/49/63 32/44/64
s 7
f 28/193/65 96/194/66 97/195/67 30/196/68
s 8
f 108/199/69 89/200/70 27/201/71 29/202/72
s 9
f 31/33/73 98/34/74 99/35/75 38/36/76
s 10
f 106/42/77 107/43/78 32/44/79 37/45/80
s 11
f 44/205/81 43/206/82 46/207/83 45/208/84
f 42/209/85 41/210/86 48/211/87 47/212/88
s 13
f 69/1/89 95/2/90 96/3/91 28/4/92
s 14
f 61/87/93 65/88/94 30/89/95 31/90/96
s 15
f 45/111/97 49/112/98 34/113/99 35/114/100
s 16
f 65/219/101 69/220/102 28/221/103 30/222/104
s 11
f 26/213/105 44/205/81 45/208/84 35/214/106
s 14
f 57/93/107 61/87/93 31/90/96 38/94/108
s 15
f 34/113/99 49/112/98 53/117/109 40/118/110
s 17
f 99/159/111 100/160/112 57/161/113 38/162/114
s 11
f 48/211/87 41/210/86 25/215/115 36/216/116
s 15
f 33/131/117 52/129/118 48/128/119 36/132/120
f 56/133/121 52/129/118 33/131/117 39/134/122
s 17
f 37/186/123 60/182/124 105/181/125 106/187/126
s 14
f 32/109/127 64/105/128 60/107/129 37/110/130
f 29/108/131 68/106/132 64/105/128 32/109/127
s 16
f 27/233/133 72/232/134 68/231/135 29/234/136
s 13
f 89/5/137 90/6/138 72/7/139 27/8/140
s 15
f 47/125/141 48/128/119 52/129/118 51/126/142
f 45/111/97 46/115/143 50/116/144 49/112/98
f 51/126/142 52/129/118 56/133/121 55/130/145
f 49/112/98 50/116/144 54/121/146 53/117/109
s 17
f 104/175/147 105/181/125 60/182/124 59/176/148
f 100/160/112 101/165/149 58/166/150 57/161/113
s 14
f 59/104/151 60/107/129 64/105/128 63/102/152
f 57/93/107 58/95/153 62/91/154 61/87/93
f 63/102/152 64/105/128 68/106/132 67/103/155
f 61/87/93 62/91/154 66/92/156 65/88/94
s 16
f 67/229/157 68/231/135 72/232/134 71/230/158
f 65/219/101 66/223/159 70/224/160 69/220/102
s 13
f 90/6/138 91/9/161 71/10/162 72/7/139
f 94/11/163 95/2/90 69/1/89 70/12/164
f 92/13/165 93/14/166 87/15/167 88/16/168
s 11
f 74/217/169 73/218/170 76/235/171 75/236/172
s 15
f 75/119/173 76/122/174 78/123/175 77/120/176
f 77/120/176 78/123/175 80/127/177 79/124/178
s 17
f 102/168/179 103/171/180 82/172/181 81/169/182
s 14
f 81/98/183 82/101/184 84/99/185 83/96/186
f 83/96/187 84/99/188 86/100/189 85/97/190
s 16
f 85/225/191 86/227/192 88/228/193 87/226/194
s 11
f 43/206/82 74/217/169 75/236/172 46/207/83
f 73/218/170 42/209/85 47/212/88 76/235/171
s 15
f 76/122/174 47/125/141 51/126/142 78/123/175
f 46/115/143 75/119/173 77/120/176 50/116/144
f 78/123/175 51/126/142 55/130/145 80/127/177
f 50/116/144 77/120/176 79/124/178 54/121/146
s 17
f 103/171/180 104/175/147 59/176/148 82/172/181
f 101/165/149 102/168/179 81/169/182 58/166/150
s 14
f 82/101/184 59/104/151 63/102/152 84/99/185
f 58/95/153 81/98/183 83/96/186 62/91/154
f 84/99/188 63/102/152 67/103/155 86/100/189
f 62/91/154 83/96/187 85/97/190 66/92/156
s 16
f 86/227/192 67/229/157 71/230/158 88/228/193
f 66/223/159 85/225/191 87/226/194 70/224/160
s 13
f 91/9/161 92/13/165 88/16/168 71/10/162
f 93/14/166 94/11/163 70/12/164 87/15/167
f 25/17/195 41/18/196 90/6/138 89/5/137
f 41/18/196 42/19/197 91/9/161 90/6/138
f 42/19/197 73/20/198 92/13/165 91/9/161
f 73/20/198 74/21/199 93/14/166 92/13/165
f 74/21/199 43/22/200 94/11/163 93/14/166
f 43/22/200 44/23/201 95/2/90 94/11/163
f 96/3/91 95/2/90 44/23/201 26/24/202
s 7
f 97/195/67 96/194/66 26/197/203 35/198/204
s 5
f 35/41/205 34/39/206 98/34/58 97/37/57
s 9
f 99/35/75 98/34/74 34/39/207 40/40/208
s 17
f 53/163/209 100/160/112 99/159/111 40/164/210
f 53/163/209 54/167/211 101/165/149 100/160/112
f 54/167/211 79/170/212 102/168/179 101/165/149
s off
f 110/177/213 109/178/214 111/174/215 112/173/216
s 17
f 80/179/217 55/180/218 104/175/147 103/171/180
f 55/180/218 56/185/219 105/181/125 104/175/147
f 106/187/126 105/181/125 56/185/219 39/188/220
s 10
f 33/46/221 107/43/78 106/42/77 39/47/222
s 6
f 33/46/223 36/50/224 108/48/62 107/43/61
s 8
f 25/203/225 89/200/70 108/199/69 36/204/226
s off
f 80/51/227 103/52/228 111/53/229 109/54/230
f 103/171/231 102/168/232 112/173/233 111/174/234
f 102/57/235 79/58/236 110/59/237 112/60/238
f 79/189/239 80/190/240 113/191/241 114/192/242
f 80/51/243 109/54/244 115/55/245 113/56/246
f 109/178/247 110/177/248 116/183/249 115/184/250
f 110/59/251 79/58/252 114/61/253 116/62/254
